<mxfile host="Electron" modified="2024-05-12T19:30:36.532Z" agent="Mozilla/5.0 (X11; Linux x86_64) AppleWebKit/537.36 (KHTML, like Gecko) draw.io/24.2.5 Chrome/120.0.6099.109 Electron/28.1.0 Safari/537.36" etag="o-uxmU552cWTTQbJAwPr" version="24.2.5" type="device">
  <diagram id="C5RBs43oDa-KdzZeNtuy" name="Page-1">
    <mxGraphModel dx="1816" dy="537" grid="1" gridSize="10" guides="1" tooltips="1" connect="1" arrows="1" fold="1" page="1" pageScale="1" pageWidth="827" pageHeight="1169" math="0" shadow="0">
      <root>
        <mxCell id="WIyWlLk6GJQsqaUBKTNV-0" />
        <mxCell id="WIyWlLk6GJQsqaUBKTNV-1" parent="WIyWlLk6GJQsqaUBKTNV-0" />
        <mxCell id="_IxMCxSyqASN3nu3jRir-0" value="Person" style="swimlane;fontStyle=1;align=center;verticalAlign=top;childLayout=stackLayout;horizontal=1;startSize=26;horizontalStack=0;resizeParent=1;resizeParentMax=0;resizeLast=0;collapsible=1;marginBottom=0;whiteSpace=wrap;html=1;" parent="WIyWlLk6GJQsqaUBKTNV-1" vertex="1">
          <mxGeometry x="-130" y="260" width="240" height="268" as="geometry" />
        </mxCell>
        <mxCell id="_IxMCxSyqASN3nu3jRir-1" value="- id: Long" style="text;strokeColor=none;fillColor=none;align=left;verticalAlign=top;spacingLeft=4;spacingRight=4;overflow=hidden;rotatable=0;points=[[0,0.5],[1,0.5]];portConstraint=eastwest;whiteSpace=wrap;html=1;" parent="_IxMCxSyqASN3nu3jRir-0" vertex="1">
          <mxGeometry y="26" width="240" height="26" as="geometry" />
        </mxCell>
        <mxCell id="_IxMCxSyqASN3nu3jRir-31" value="- fullName: String" style="text;strokeColor=none;fillColor=none;align=left;verticalAlign=top;spacingLeft=4;spacingRight=4;overflow=hidden;rotatable=0;points=[[0,0.5],[1,0.5]];portConstraint=eastwest;whiteSpace=wrap;html=1;" parent="_IxMCxSyqASN3nu3jRir-0" vertex="1">
          <mxGeometry y="52" width="240" height="26" as="geometry" />
        </mxCell>
        <mxCell id="_IxMCxSyqASN3nu3jRir-11" value="&lt;span style=&quot;font-family: Helvetica; font-size: 12px; font-style: normal; font-variant-ligatures: normal; font-variant-caps: normal; font-weight: 400; letter-spacing: normal; orphans: 2; text-align: left; text-indent: 0px; text-transform: none; widows: 2; word-spacing: 0px; -webkit-text-stroke-width: 0px; white-space: normal; text-decoration-thickness: initial; text-decoration-style: initial; text-decoration-color: initial; float: none; display: inline !important;&quot;&gt;- birthDate: LocalDate&lt;/span&gt;" style="text;strokeColor=none;fillColor=none;align=left;verticalAlign=top;spacingLeft=4;spacingRight=4;overflow=hidden;rotatable=0;points=[[0,0.5],[1,0.5]];portConstraint=eastwest;whiteSpace=wrap;html=1;" parent="_IxMCxSyqASN3nu3jRir-0" vertex="1">
          <mxGeometry y="78" width="240" height="26" as="geometry" />
        </mxCell>
        <mxCell id="_IxMCxSyqASN3nu3jRir-84" value="- active: boolean" style="text;strokeColor=none;fillColor=none;align=left;verticalAlign=top;spacingLeft=4;spacingRight=4;overflow=hidden;rotatable=0;points=[[0,0.5],[1,0.5]];portConstraint=eastwest;whiteSpace=wrap;html=1;" parent="_IxMCxSyqASN3nu3jRir-0" vertex="1">
          <mxGeometry y="104" width="240" height="26" as="geometry" />
        </mxCell>
        <mxCell id="_IxMCxSyqASN3nu3jRir-2" value="" style="line;strokeWidth=1;fillColor=none;align=left;verticalAlign=middle;spacingTop=-1;spacingLeft=3;spacingRight=3;rotatable=0;labelPosition=right;points=[];portConstraint=eastwest;strokeColor=inherit;" parent="_IxMCxSyqASN3nu3jRir-0" vertex="1">
          <mxGeometry y="130" width="240" height="8" as="geometry" />
        </mxCell>
        <mxCell id="_IxMCxSyqASN3nu3jRir-3" value="+ addAddress(address: Address)" style="text;strokeColor=none;fillColor=none;align=left;verticalAlign=top;spacingLeft=4;spacingRight=4;overflow=hidden;rotatable=0;points=[[0,0.5],[1,0.5]];portConstraint=eastwest;whiteSpace=wrap;html=1;" parent="_IxMCxSyqASN3nu3jRir-0" vertex="1">
          <mxGeometry y="138" width="240" height="26" as="geometry" />
        </mxCell>
        <mxCell id="2ki3GAJTkW9jc2J4yONF-2" value="+ setMainAddress(address: Address)" style="text;strokeColor=none;fillColor=none;align=left;verticalAlign=top;spacingLeft=4;spacingRight=4;overflow=hidden;rotatable=0;points=[[0,0.5],[1,0.5]];portConstraint=eastwest;whiteSpace=wrap;html=1;" vertex="1" parent="_IxMCxSyqASN3nu3jRir-0">
          <mxGeometry y="164" width="240" height="26" as="geometry" />
        </mxCell>
        <mxCell id="zT4dyOqBaJVnNHyx_dI5-2" value="+ removeAddress(address: Address)" style="text;strokeColor=none;fillColor=none;align=left;verticalAlign=top;spacingLeft=4;spacingRight=4;overflow=hidden;rotatable=0;points=[[0,0.5],[1,0.5]];portConstraint=eastwest;whiteSpace=wrap;html=1;" parent="_IxMCxSyqASN3nu3jRir-0" vertex="1">
          <mxGeometry y="190" width="240" height="26" as="geometry" />
        </mxCell>
        <mxCell id="2ki3GAJTkW9jc2J4yONF-1" value="+ removeAddress(id: Long)" style="text;strokeColor=none;fillColor=none;align=left;verticalAlign=top;spacingLeft=4;spacingRight=4;overflow=hidden;rotatable=0;points=[[0,0.5],[1,0.5]];portConstraint=eastwest;whiteSpace=wrap;html=1;" vertex="1" parent="_IxMCxSyqASN3nu3jRir-0">
          <mxGeometry y="216" width="240" height="26" as="geometry" />
        </mxCell>
        <mxCell id="2ki3GAJTkW9jc2J4yONF-0" value="+ hasMainAddress(): boolean" style="text;strokeColor=none;fillColor=none;align=left;verticalAlign=top;spacingLeft=4;spacingRight=4;overflow=hidden;rotatable=0;points=[[0,0.5],[1,0.5]];portConstraint=eastwest;whiteSpace=wrap;html=1;" vertex="1" parent="_IxMCxSyqASN3nu3jRir-0">
          <mxGeometry y="242" width="240" height="26" as="geometry" />
        </mxCell>
        <mxCell id="_IxMCxSyqASN3nu3jRir-18" value="Address" style="swimlane;fontStyle=1;align=center;verticalAlign=top;childLayout=stackLayout;horizontal=1;startSize=26;horizontalStack=0;resizeParent=1;resizeParentMax=0;resizeLast=0;collapsible=1;marginBottom=0;whiteSpace=wrap;html=1;" parent="WIyWlLk6GJQsqaUBKTNV-1" vertex="1">
          <mxGeometry x="510" y="260" width="160" height="234" as="geometry" />
        </mxCell>
        <mxCell id="_IxMCxSyqASN3nu3jRir-32" value="- id: Long" style="text;strokeColor=none;fillColor=none;align=left;verticalAlign=top;spacingLeft=4;spacingRight=4;overflow=hidden;rotatable=0;points=[[0,0.5],[1,0.5]];portConstraint=eastwest;whiteSpace=wrap;html=1;" parent="_IxMCxSyqASN3nu3jRir-18" vertex="1">
          <mxGeometry y="26" width="160" height="26" as="geometry" />
        </mxCell>
        <mxCell id="_IxMCxSyqASN3nu3jRir-19" value="- address: String" style="text;strokeColor=none;fillColor=none;align=left;verticalAlign=top;spacingLeft=4;spacingRight=4;overflow=hidden;rotatable=0;points=[[0,0.5],[1,0.5]];portConstraint=eastwest;whiteSpace=wrap;html=1;" parent="_IxMCxSyqASN3nu3jRir-18" vertex="1">
          <mxGeometry y="52" width="160" height="26" as="geometry" />
        </mxCell>
        <mxCell id="_IxMCxSyqASN3nu3jRir-20" value="&lt;span style=&quot;font-family: Helvetica; font-size: 12px; font-style: normal; font-variant-ligatures: normal; font-variant-caps: normal; font-weight: 400; letter-spacing: normal; orphans: 2; text-align: left; text-indent: 0px; text-transform: none; widows: 2; word-spacing: 0px; -webkit-text-stroke-width: 0px; white-space: normal; text-decoration-thickness: initial; text-decoration-style: initial; text-decoration-color: initial; float: none; display: inline !important;&quot;&gt;- cep: String&lt;/span&gt;" style="text;strokeColor=none;fillColor=none;align=left;verticalAlign=top;spacingLeft=4;spacingRight=4;overflow=hidden;rotatable=0;points=[[0,0.5],[1,0.5]];portConstraint=eastwest;whiteSpace=wrap;html=1;" parent="_IxMCxSyqASN3nu3jRir-18" vertex="1">
          <mxGeometry y="78" width="160" height="26" as="geometry" />
        </mxCell>
        <mxCell id="_IxMCxSyqASN3nu3jRir-23" value="&lt;span style=&quot;font-family: Helvetica; font-size: 12px; font-style: normal; font-variant-ligatures: normal; font-variant-caps: normal; font-weight: 400; letter-spacing: normal; orphans: 2; text-align: left; text-indent: 0px; text-transform: none; widows: 2; word-spacing: 0px; -webkit-text-stroke-width: 0px; white-space: normal; text-decoration-thickness: initial; text-decoration-style: initial; text-decoration-color: initial; float: none; display: inline !important;&quot;&gt;- number: String&lt;/span&gt;" style="text;strokeColor=none;fillColor=none;align=left;verticalAlign=top;spacingLeft=4;spacingRight=4;overflow=hidden;rotatable=0;points=[[0,0.5],[1,0.5]];portConstraint=eastwest;whiteSpace=wrap;html=1;" parent="_IxMCxSyqASN3nu3jRir-18" vertex="1">
          <mxGeometry y="104" width="160" height="26" as="geometry" />
        </mxCell>
        <mxCell id="_IxMCxSyqASN3nu3jRir-83" value="- city: String" style="text;strokeColor=none;fillColor=none;align=left;verticalAlign=top;spacingLeft=4;spacingRight=4;overflow=hidden;rotatable=0;points=[[0,0.5],[1,0.5]];portConstraint=eastwest;whiteSpace=wrap;html=1;" parent="_IxMCxSyqASN3nu3jRir-18" vertex="1">
          <mxGeometry y="130" width="160" height="26" as="geometry" />
        </mxCell>
        <mxCell id="zT4dyOqBaJVnNHyx_dI5-0" value="- state: String" style="text;strokeColor=none;fillColor=none;align=left;verticalAlign=top;spacingLeft=4;spacingRight=4;overflow=hidden;rotatable=0;points=[[0,0.5],[1,0.5]];portConstraint=eastwest;whiteSpace=wrap;html=1;" parent="_IxMCxSyqASN3nu3jRir-18" vertex="1">
          <mxGeometry y="156" width="160" height="26" as="geometry" />
        </mxCell>
        <mxCell id="zT4dyOqBaJVnNHyx_dI5-1" value="- active: boolean" style="text;strokeColor=none;fillColor=none;align=left;verticalAlign=top;spacingLeft=4;spacingRight=4;overflow=hidden;rotatable=0;points=[[0,0.5],[1,0.5]];portConstraint=eastwest;whiteSpace=wrap;html=1;" parent="_IxMCxSyqASN3nu3jRir-18" vertex="1">
          <mxGeometry y="182" width="160" height="26" as="geometry" />
        </mxCell>
        <mxCell id="2ki3GAJTkW9jc2J4yONF-3" value="- isMain: boolean" style="text;strokeColor=none;fillColor=none;align=left;verticalAlign=top;spacingLeft=4;spacingRight=4;overflow=hidden;rotatable=0;points=[[0,0.5],[1,0.5]];portConstraint=eastwest;whiteSpace=wrap;html=1;" vertex="1" parent="_IxMCxSyqASN3nu3jRir-18">
          <mxGeometry y="208" width="160" height="26" as="geometry" />
        </mxCell>
        <mxCell id="_IxMCxSyqASN3nu3jRir-80" value="mainAddress" style="endArrow=open;endFill=0;html=1;edgeStyle=orthogonalEdgeStyle;align=left;verticalAlign=top;rounded=0;exitX=1.004;exitY=-0.147;exitDx=0;exitDy=0;exitPerimeter=0;entryX=-0.007;entryY=0.168;entryDx=0;entryDy=0;entryPerimeter=0;endSize=10;startSize=10;" parent="WIyWlLk6GJQsqaUBKTNV-1" edge="1">
          <mxGeometry x="-0.9104" y="-2" relative="1" as="geometry">
            <mxPoint x="110.95999999999981" y="459.1780000000001" as="sourcePoint" />
            <mxPoint x="508.8800000000001" y="459.36799999999994" as="targetPoint" />
            <mxPoint as="offset" />
          </mxGeometry>
        </mxCell>
        <mxCell id="_IxMCxSyqASN3nu3jRir-81" value="1" style="edgeLabel;resizable=0;html=1;align=left;verticalAlign=bottom;" parent="_IxMCxSyqASN3nu3jRir-80" connectable="0" vertex="1">
          <mxGeometry x="-1" relative="1" as="geometry">
            <mxPoint x="18" as="offset" />
          </mxGeometry>
        </mxCell>
        <mxCell id="2ki3GAJTkW9jc2J4yONF-5" value="" style="group" vertex="1" connectable="0" parent="WIyWlLk6GJQsqaUBKTNV-1">
          <mxGeometry x="480" y="270" width="16" height="30" as="geometry" />
        </mxCell>
        <mxCell id="_IxMCxSyqASN3nu3jRir-65" value="&lt;span style=&quot;font-family: Helvetica; font-size: 11px; font-style: normal; font-variant-ligatures: normal; font-variant-caps: normal; font-weight: 400; letter-spacing: normal; orphans: 2; text-align: left; text-indent: 0px; text-transform: none; widows: 2; word-spacing: 0px; -webkit-text-stroke-width: 0px; white-space: nowrap; text-decoration-thickness: initial; text-decoration-style: initial; text-decoration-color: initial; float: none; display: inline !important;&quot;&gt;*&lt;/span&gt;" style="text;whiteSpace=wrap;html=1;" parent="2ki3GAJTkW9jc2J4yONF-5" vertex="1">
          <mxGeometry y="3" width="16" height="30" as="geometry" />
        </mxCell>
        <mxCell id="_IxMCxSyqASN3nu3jRir-61" value="" style="endArrow=open;html=1;endSize=10;startArrow=diamondThin;startSize=10;startFill=1;edgeStyle=orthogonalEdgeStyle;align=left;verticalAlign=bottom;rounded=0;entryX=0;entryY=0.5;entryDx=0;entryDy=0;exitX=1;exitY=0.5;exitDx=0;exitDy=0;" parent="WIyWlLk6GJQsqaUBKTNV-1" target="_IxMCxSyqASN3nu3jRir-32" edge="1" source="_IxMCxSyqASN3nu3jRir-1">
          <mxGeometry x="-0.8095" y="9" relative="1" as="geometry">
            <mxPoint x="230" y="290" as="sourcePoint" />
            <mxPoint x="470" y="460" as="targetPoint" />
            <mxPoint as="offset" />
          </mxGeometry>
        </mxCell>
        <mxCell id="_IxMCxSyqASN3nu3jRir-74" value="addresses" style="edgeLabel;html=1;align=center;verticalAlign=middle;resizable=0;points=[];" parent="_IxMCxSyqASN3nu3jRir-61" vertex="1" connectable="0">
          <mxGeometry x="-0.0749" y="2" relative="1" as="geometry">
            <mxPoint x="-139" y="15" as="offset" />
          </mxGeometry>
        </mxCell>
        <mxCell id="2ki3GAJTkW9jc2J4yONF-8" value="1" style="edgeLabel;resizable=0;html=1;align=left;verticalAlign=bottom;" connectable="0" vertex="1" parent="WIyWlLk6GJQsqaUBKTNV-1">
          <mxGeometry x="478.9599999999998" y="459.1780000000001" as="geometry" />
        </mxCell>
        <mxCell id="2ki3GAJTkW9jc2J4yONF-9" value="" style="group" vertex="1" connectable="0" parent="WIyWlLk6GJQsqaUBKTNV-1">
          <mxGeometry x="110" y="368" width="400" height="15" as="geometry" />
        </mxCell>
        <mxCell id="2ki3GAJTkW9jc2J4yONF-6" value="" style="group" vertex="1" connectable="0" parent="2ki3GAJTkW9jc2J4yONF-9">
          <mxGeometry width="400" height="15" as="geometry" />
        </mxCell>
        <mxCell id="_IxMCxSyqASN3nu3jRir-56" value="" style="endArrow=open;endFill=0;html=1;edgeStyle=orthogonalEdgeStyle;align=left;verticalAlign=top;rounded=0;entryX=1;entryY=0.5;entryDx=0;entryDy=0;exitX=0;exitY=0.5;exitDx=0;exitDy=0;strokeWidth=1;endSize=10;startSize=10;" parent="2ki3GAJTkW9jc2J4yONF-6" edge="1">
          <mxGeometry x="-1" relative="1" as="geometry">
            <mxPoint x="400" y="15" as="sourcePoint" />
            <mxPoint y="15" as="targetPoint" />
          </mxGeometry>
        </mxCell>
        <mxCell id="_IxMCxSyqASN3nu3jRir-60" value="person" style="edgeLabel;html=1;align=center;verticalAlign=middle;resizable=0;points=[];" parent="_IxMCxSyqASN3nu3jRir-56" vertex="1" connectable="0">
          <mxGeometry x="0.0683" y="3" relative="1" as="geometry">
            <mxPoint x="171" y="10" as="offset" />
          </mxGeometry>
        </mxCell>
        <mxCell id="_IxMCxSyqASN3nu3jRir-58" value="1" style="edgeLabel;resizable=0;html=1;align=left;verticalAlign=bottom;" parent="2ki3GAJTkW9jc2J4yONF-6" connectable="0" vertex="1">
          <mxGeometry x="13" y="30" as="geometry">
            <mxPoint x="6" y="-17" as="offset" />
          </mxGeometry>
        </mxCell>
        <mxCell id="2ki3GAJTkW9jc2J4yONF-7" value="1" style="edgeLabel;resizable=0;html=1;align=left;verticalAlign=bottom;" connectable="0" vertex="1" parent="2ki3GAJTkW9jc2J4yONF-9">
          <mxGeometry x="361" y="30" as="geometry">
            <mxPoint x="6" y="-17" as="offset" />
          </mxGeometry>
        </mxCell>
      </root>
    </mxGraphModel>
  </diagram>
</mxfile>
